<?xml version="1.0" encoding="UTF-8" standalone="no" ?>
<!DOCTYPE svg PUBLIC "-//W3C//DTD SVG 1.1//EN" "http://www.w3.org/Graphics/SVG/1.1/DTD/svg11.dtd">
<svg xmlns="http://www.w3.org/2000/svg" xmlns:xlink="http://www.w3.org/1999/xlink" version="1.1" width="1080" height="1080" viewBox="0 0 1080 1080" xml:space="preserve">
<desc>Created with Fabric.js 5.2.4</desc>
<defs>
</defs>
<g transform="matrix(1 0 0 1 540 540)" id="f6918cae-8077-4d43-8832-570b5cae8b1a"  >
</g>
<g transform="matrix(1 0 0 1 540 540)" id="e4bef4fe-b98c-42c7-a619-360d56344fc1"  >
<rect style="stroke: none; stroke-width: 1; stroke-dasharray: none; stroke-linecap: butt; stroke-dashoffset: 0; stroke-linejoin: miter; stroke-miterlimit: 4; fill: rgb(255,255,255); fill-rule: nonzero; opacity: 1; visibility: hidden;" vector-effect="non-scaling-stroke"  x="-540" y="-540" rx="0" ry="0" width="1080" height="1080" />
</g>
<g transform="matrix(11.41 0 0 11.41 570.34 571.42)" id="Layer_1"  >
<rect style="stroke: none; stroke-width: 1; stroke-dasharray: none; stroke-linecap: butt; stroke-dashoffset: 0; stroke-linejoin: miter; stroke-miterlimit: 4; fill: rgb(22,137,197); fill-rule: nonzero; opacity: 1;" vector-effect="non-scaling-stroke"  x="-50" y="-50" rx="0" ry="0" width="100" height="100" />
</g>
<g transform="matrix(6.46 0 0 6.64 476.81 539.16)"  >
<path style="stroke: none; stroke-width: 1; stroke-dasharray: none; stroke-linecap: butt; stroke-dashoffset: 0; stroke-linejoin: miter; stroke-miterlimit: 4; fill: rgb(255,255,255); fill-rule: nonzero; opacity: 1;" vector-effect="non-scaling-stroke"  transform=" translate(-65.55, -74.8)" d="M 131.1 0 L 0 0 L 0 149.6 L 131.1 149.6 L 131.1 0 z" stroke-linecap="round" />
</g>
<g transform="matrix(7.2 0 0 7.2 584.28 879.37)"  >
<path style="stroke: none; stroke-width: 1; stroke-dasharray: none; stroke-linecap: butt; stroke-dashoffset: 0; stroke-linejoin: miter; stroke-miterlimit: 4; fill: rgb(253,184,19); fill-rule: nonzero; opacity: 1;" vector-effect="non-scaling-stroke"  transform=" translate(-81.11, -121.92)" d="M 75.5 101.5 C 73.6 102.6 72.4 103.9 71.7 105.6 C 70.3 109.39999999999999 71.10000000000001 113.69999999999999 74 118.5 L 71.2 121.3 L 68 126 C 66.5 130.1 67.1 134.4 70.1 139.1 C 71.89999999999999 142.2 75.19999999999999 143.7 80.1 143.6 L 92.6 143.6 C 94.5 143.79999999999998 95.3 143.2 94.89999999999999 141.7 L 94.89999999999999 119 L 87.8 119 L 87.8 124.7 L 79.8 113.4 L 78.6 109.9 C 78.6 107.9 79.5 107 81.3 107.2 L 82.3 107.5 C 83.1 107.9 83.39999999999999 108.5 83.6 109.4 L 83.6 112.60000000000001 L 91.6 112.60000000000001 L 91.6 109.9 C 91.5 107.5 91.1 105.60000000000001 90.3 104.2 L 89.2 102.8 C 87.5 101.2 85.2 100.39999999999999 82.3 100.2 L 78.2 100.5 L 75.5 101.5 z" stroke-linecap="round" />
</g>
<g transform="matrix(7.2 0 0 7.2 587.13 942.36)"  >
<path style="stroke: none; stroke-width: 1; stroke-dasharray: none; stroke-linecap: butt; stroke-dashoffset: 0; stroke-linejoin: miter; stroke-miterlimit: 4; fill: rgb(255,255,255); fill-rule: nonzero; opacity: 1;" vector-effect="non-scaling-stroke"  transform=" translate(-81.5, -130.65)" d="M 82.9 136.6 L 87.30000000000001 136.6 L 87.4 136.1 L 77.7 124.69999999999999 C 76.8 125.29999999999998 76.2 126.49999999999999 75.8 128.29999999999998 C 75.3 130.6 75.7 132.7 77 134.7 L 78.6 135.79999999999998 L 82.9 136.6 z" stroke-linecap="round" />
</g>
<g transform="matrix(7.2 0 0 7.2 804.35 539.67)"  >
<path style="stroke: none; stroke-width: 1; stroke-dasharray: none; stroke-linecap: butt; stroke-dashoffset: 0; stroke-linejoin: miter; stroke-miterlimit: 4; fill: rgb(22,137,197); fill-rule: nonzero; opacity: 1;" vector-effect="non-scaling-stroke"  transform=" translate(-111.65, -74.8)" d="M 122.2 121.8 L 110.7 121.8 L 110.7 134.4 L 122.2 134.4 L 122.2 143.6 L 125.4 143.6 L 125.4 5.6 L 97.9 5.6 L 97.9 144 L 99.5 144 L 99.5 91.4 L 122.2 91.4 L 122.2 100.7 L 110.7 100.7 L 110.7 112.5 L 122.2 112.5 L 122.2 121.8 z" stroke-linecap="round" />
</g>
<g transform="matrix(7.2 0 0 7.2 158.85 781.63)"  >
<path style="stroke: none; stroke-width: 1; stroke-dasharray: none; stroke-linecap: butt; stroke-dashoffset: 0; stroke-linejoin: miter; stroke-miterlimit: 4; fill: rgb(22,137,197); fill-rule: nonzero; opacity: 1;" vector-effect="non-scaling-stroke"  transform=" translate(-22.05, -108.34)" d="M 24.6 104.6 C 23.900000000000002 101.5 22.1 100.19999999999999 19.5 100.69999999999999 L 19.5 116 C 22.5 116.5 24.2 114.9 24.6 111.2 L 24.6 104.6 z" stroke-linecap="round" />
</g>
<g transform="matrix(7.2 0 0 7.2 370.11 540.03)"  >
<path style="stroke: none; stroke-width: 1; stroke-dasharray: none; stroke-linecap: butt; stroke-dashoffset: 0; stroke-linejoin: miter; stroke-miterlimit: 4; fill: rgb(22,137,197); fill-rule: nonzero; opacity: 1;" vector-effect="non-scaling-stroke"  transform=" translate(-51.4, -74.85)" d="M 45.1 90.9 L 50.7 90.10000000000001 C 54.800000000000004 90.30000000000001 58 91.80000000000001 60.1 94.7 L 61.7 97.2 C 62.5 99.60000000000001 62.900000000000006 102.9 62.5 107 L 52.4 106.9 L 52.4 101.9 C 52.199999999999996 100.4 51.5 99.60000000000001 49.9 99.60000000000001 C 48.4 99.7 47.6 100.7 47.6 102.60000000000001 L 47.6 132.5 L 47.9 133.9 C 48.3 134.8 48.9 135.4 49.8 135.5 C 51.8 136.2 52.9 135.3 52.9 133 L 52.9 124.2 L 50.1 124.2 L 50.1 115 L 62.900000000000006 115 L 62.900000000000006 127.4 L 97.2 5.6 L 5.6 5.6 L 5.6 144.1 L 8.899999999999999 144.1 L 8.899999999999999 91.2 L 19.7 91.2 L 25.299999999999997 91.8 C 29.4 93 32.199999999999996 95.1 33.699999999999996 98.39999999999999 C 34.49999999999999 100.1 34.99999999999999 102.99999999999999 35.4 106.99999999999999 C 35.8 112.59999999999998 35.3 116.19999999999999 34.1 117.69999999999999 C 31.8 122.89999999999999 28.1 125.49999999999999 22.900000000000002 125.1 L 19.3 125 L 19.3 143.7 L 44.7 143.7 C 39.6 142.6 37.1 138.7 37.1 132.39999999999998 L 37.1 102.09999999999998 C 36.4 96.1 39.1 92.3 45.1 90.9 z" stroke-linecap="round" />
</g>
<g transform="matrix(7.2 0 0 7.2 1021.96 60.48)"  >
<path style="stroke: none; stroke-width: 1; stroke-dasharray: none; stroke-linecap: butt; stroke-dashoffset: 0; stroke-linejoin: miter; stroke-miterlimit: 4; fill: rgb(22,137,197); fill-rule: nonzero; opacity: 1;" vector-effect="non-scaling-stroke"  transform=" translate(-141.85, -8.25)" d="M 141.9 16.2 C 147.3 16.2 149.9 13.5 149.9 8 C 149.9 2.8 147.3 0.2999999999999998 141.9 0.2999999999999998 C 136.4 0.2999999999999998 133.8 2.8 133.8 8 C 133.8 13.5 136.4 16.2 141.9 16.2 z M 148.4 8 C 148.4 12.8 146.3 15 141.9 15 C 137.4 15 135.20000000000002 12.8 135.20000000000002 8 C 135.20000000000002 3.5999999999999996 137.4 1.2999999999999998 141.9 1.2999999999999998 C 146.3 1.3 148.4 3.6 148.4 8 z" stroke-linecap="round" />
</g>
<g transform="matrix(7.2 0 0 7.2 1025.59 59.78)"  >
<path style="stroke: none; stroke-width: 1; stroke-dasharray: none; stroke-linecap: butt; stroke-dashoffset: 0; stroke-linejoin: miter; stroke-miterlimit: 4; fill: rgb(22,137,197); fill-rule: nonzero; opacity: 1;" vector-effect="non-scaling-stroke"  transform=" translate(-142.35, -8.15)" d="M 145.6 6.1 C 145.6 4.3 144.4 3.3999999999999995 142.29999999999998 3.3999999999999995 L 138.79999999999998 3.3999999999999995 L 138.79999999999998 12.899999999999999 L 140.2 12.899999999999999 L 140.2 8.8 L 141.79999999999998 8.8 L 144.39999999999998 12.9 L 145.89999999999998 12.9 L 143.2 8.7 C 144.9 8.5 145.6 7.6 145.6 6.1 z M 142.2 4.6 C 143.6 4.6 144.2 5.1 144.2 6 C 144.2 7.1 143.29999999999998 7.6 141.7 7.6 L 140.2 7.6 L 140.2 4.6 L 142.2 4.6 z" stroke-linecap="round" />
</g>
</svg>