<?xml version="1.0" encoding="UTF-8" standalone="no"?>
<svg
   width="60"
   height="60"
   version="1.1"
   id="svg42"
   sodipodi:docname="project-screenconsult-vendor-logo.svg"
   inkscape:version="1.1.2 (b8e25be833, 2022-02-05)"
   xmlns:inkscape="http://www.inkscape.org/namespaces/inkscape"
   xmlns:sodipodi="http://sodipodi.sourceforge.net/DTD/sodipodi-0.dtd"
   xmlns="http://www.w3.org/2000/svg"
   xmlns:svg="http://www.w3.org/2000/svg">
  <defs
     id="defs46" />
  <sodipodi:namedview
     id="namedview44"
     pagecolor="#ffffff"
     bordercolor="#666666"
     borderopacity="1.0"
     inkscape:pageshadow="2"
     inkscape:pageopacity="0.0"
     inkscape:pagecheckerboard="0"
     showgrid="false"
     width="60px"
     inkscape:zoom="6.9605263"
     inkscape:cx="-6.536862"
     inkscape:cy="24.99811"
     inkscape:window-width="2560"
     inkscape:window-height="1377"
     inkscape:window-x="-8"
     inkscape:window-y="-8"
     inkscape:window-maximized="1"
     inkscape:current-layer="svg42" />
  <style
     type="text/css"
     id="style2">.st0{fill:#1E1C21;} .st1{fill:#201E23;} .st2{fill:#0571B2;} .st3{fill:#9E186D;} .st4{fill:#BE7C9C;} .st5{fill:#80C9E9;} .st6{fill:#14AADF;} .st7{fill:#81C8E8;} .st8{fill:#12ABDF;} .st9{fill:#DBBACB;} .st10{fill:#1D1B20;} .st11{fill:#1D1B1F;} .st12{fill:#1A181D;}</style>
  <path
     d="m 44.746692,24.84102 c -1.9,0 -3.8,0 -5.6,0 -1.2,0 -2.4,0 -3.5,0 -0.4,0 -0.6,-0.1 -0.6,-0.6 0,-3.1 0,-6.1 0,-9.2 0.3,0 0.7,0 1,0 2.9,0 5.9,0 8.8,0 0,3.3 0,6.6 -0.1,9.8 z m -19.4,-9.7 c 0,3.1 0,6.2 0,9.3 0,0.3 -0.1,0.5 -0.4,0.5 -3.1,0 -6.2,0 -9.3,-0.1 0,-3.3 0,-6.5 0,-9.8 3.2,0.1 6.5,0.1 9.7,0.1 z"
     class="st2"
     id="path8" />
  <path
     d="m 34.946692,44.24102 c 0,-3.1 0,-6.1 0,-9.2 0,-0.4 0.1,-0.5 0.5,-0.5 3.1,0 6.2,0 9.4,0 0,3.2 0,6.5 0,9.7 -1.3,0 -2.7,0 -4,0 -2,0 -3.9,0 -5.9,0 z"
     class="st3"
     id="path10" />
  <path
     d="m 34.946692,44.24102 c 1.9,0 3.8,0 5.8,0 1.3,0 2.7,0 4,0 0,0.1 0,0.1 0,0.2 0,2 0,3.9 0,5.9 0,1.9 -1.2,3.4 -2.8,3.8 -0.5,0.1 -1,0.2 -1.6,0.2 -1.6,0 -3.2,0 -4.8,0 -0.4,0 -0.7,0 -0.7,-0.5 0.1,-3.3 0.1,-6.4 0.1,-9.6 z"
     class="st4"
     id="path12" />
  <path
     d="m 25.346692,44.24102 c 0,3.1 0,6.2 0,9.3 0,0.5 -0.1,0.7 -0.7,0.7 -1.8,-0.1 -3.6,0 -5.4,-0.1 -2.4,-0.1 -3.7,-1.9 -3.8,-4.4 0,-1.8 0,-3.6 0,-5.4 0,0 0.1,-0.1 0.1,-0.1 3.3,0 6.6,0 9.8,0 z"
     class="st5"
     id="path14" />
  <path
     d="m 15.646692,15.14102 c 0,3.3 0,6.5 0,9.8 -2.1,0 -4.2,0 -6.4000001,0 -1,0 -2,0 -3,0 -0.4,0 -0.6,-0.1 -0.6,-0.6 0,-1.8 0,-3.6 0,-5.4 0,-2.3 1.6,-3.8 3.9,-3.9 1.9000001,0 3.9000001,0 5.8000001,0 0.2,0 0.2,0.1 0.3,0.1 z"
     class="st6"
     id="path16" />
  <path
     d="m 25.346692,44.24102 c -3.3,0 -6.5,0 -9.8,0 0,-3.2 0,-6.5 0,-9.7 3.1,0 6.2,0 9.3,0 0.3,0 0.5,0.1 0.5,0.4 0,3.1 0,6.2 0,9.3 z"
     class="st2"
     id="path18" />
  <path
     d="m 44.846692,15.04102 c -2.9,0 -5.9,0 -8.8,0 -0.3,0 -0.7,0 -1,0 0,-3.099999 0,-6.2999987 0,-9.3999992 0,-0.4 0.1,-0.5 0.5,-0.5 2,0 3.9,0 5.9,0 1.8,0.2 3.3,1.8000005 3.3,3.9000005 0.1,1.9999997 0.1,3.9999997 0.1,5.9999987 z"
     class="st7"
     id="path20" />
  <path
     d="m 44.746692,24.84102 c 0,-3.3 0,-6.5 0,-9.8 2,0 4.1,0 6.1,0 2.1,0 3.6,1.5 3.7,3.8 0.1,1.9 0,3.7 0,5.6 0,0.3 -0.1,0.5 -0.4,0.5 -3,0 -6.2,-0.1 -9.4,-0.1 z m -29.1,9.7 c 0,3.2 0,6.5 0,9.7 0,0 -0.1,0.1 -0.1,0.1 -1.9,0 -3.7,0 -5.6000001,0 -2.6,0 -4.1,-1.6 -4.2,-4.2 0,-1.7 0,-3.4 0,-5.1 0,-0.3 0,-0.5 0.4,-0.5 3.2,0 6.3000001,0 9.5000001,0 z"
     class="st8"
     id="path22" />
  <path
     d="m 15.646692,15.14102 c -0.1,0 -0.1,0 -0.2,-0.1 0,-1.799999 0,-3.599999 0.1,-5.3999987 0,-0.8 0.1,-1.500001 0.5,-2.200001 0.7,-1.3999995 1.8,-2.0999995 3.3,-2.0999995 1.8,0 3.6,0 5.4,0 0.5,0 0.7,0.1 0.7,0.7 0,3.1000005 0,6.1000002 0,9.1999992 -3.3,-0.1 -6.6,-0.1 -9.8,-0.1 z"
     class="st5"
     id="path24" />
  <path
     d="m 44.846692,44.44102 c 0,-0.1 0,-0.1 0,-0.2 0,-3.2 0,-6.5 0,-9.7 3.1,0 6.1,0 9.2,0 0.5,0 0.7,0.1 0.7,0.7 0,1.7 0,3.3 0,5 0,2.5 -1.7,4.2 -4.2,4.2 -2,0 -3.8,0 -5.7,0 z"
     class="st9"
     id="path26" />
</svg>
