<?xml version="1.0" encoding="UTF-8" standalone="no"?>
<svg
   viewBox="0 0 37 36.924"
   width="37"
   height="37"
   version="1.1"
   id="svg111"
   sodipodi:docname="Haga_logo.svg"
   inkscape:version="1.1.2 (b8e25be8, 2022-02-05)"
   xmlns:inkscape="http://www.inkscape.org/namespaces/inkscape"
   xmlns:sodipodi="http://sodipodi.sourceforge.net/DTD/sodipodi-0.dtd"
   xmlns="http://www.w3.org/2000/svg"
   xmlns:svg="http://www.w3.org/2000/svg">
  <sodipodi:namedview
     id="namedview113"
     pagecolor="#ffffff"
     bordercolor="#666666"
     borderopacity="1.0"
     inkscape:pageshadow="2"
     inkscape:pageopacity="0.0"
     inkscape:pagecheckerboard="0"
     showgrid="false"
     width="37px"
     inkscape:zoom="3.423676"
     inkscape:cx="73.16697"
     inkscape:cy="18.547316"
     inkscape:window-width="1312"
     inkscape:window-height="1081"
     inkscape:window-x="578"
     inkscape:window-y="49"
     inkscape:window-maximized="0"
     inkscape:current-layer="svg111" />
  <defs
     id="defs80">
    <style
       id="style78">
      .cls-1 {
        fill: #281e69;
      }

      .cls-2 {
        fill: #95c11f;
      }
    </style>
  </defs>
  <g
     id="Group_562"
     data-name="Group 562"
     transform="translate(0.051,-0.024)">
    <g
       id="Group_559"
       data-name="Group 559"
       transform="translate(-0.051,0.024)">
      <path
         id="Path_6916"
         data-name="Path 6916"
         class="cls-1"
         d="m 11.914,9.894 c 0,0 -12.757,10.191 -11.927,19.249 0.755,8.152 7.926,8.3 11.247,7.473 3.321,-0.827 6.643,-3.246 9.436,-15.474 2.869,-12.304 8.077,-17.742 8.983,-18.57 0.906,-0.828 2.566,-1.811 2.566,-2.415 0,-0.679 -10.341,1.057 -20.305,9.737 z"
         transform="translate(0.051,-0.024)" />
      <path
         id="Path_6917"
         data-name="Path 6917"
         class="cls-1"
         d="M 72.207,35.087 V 29.2 h -6.039 v 5.888 H 63.3 V 21.5 h 2.868 v 5.359 h 6.039 V 21.5 h 2.868 v 13.587 z"
         transform="translate(-15.479,-5.289)" />
      <path
         id="Path_6918"
         data-name="Path 6918"
         class="cls-1"
         d="M 88.263,36.166 A 4.456,4.456 0 0 1 88.112,35.109 3.62,3.62 0 0 1 85.319,36.392 2.8,2.8 0 0 1 82.3,33.6 c 0,-2.566 2.642,-3.548 5.284,-3.548 h 0.377 v -0.6 c 0,-0.83 -0.377,-1.359 -1.585,-1.359 a 4.143,4.143 0 0 0 -2.491,0.906 l -1.208,-1.661 a 5.9,5.9 0 0 1 4,-1.434 c 2.717,0 4,1.057 4,3.7 v 3.548 a 12.448,12.448 0 0 0 0.3,2.944 h -2.714 z m -0.3,-4.378 h -0.377 c -1.585,0 -2.717,0.453 -2.717,1.661 a 1.07,1.07 0 0 0 1.208,1.057 2.283,2.283 0 0 0 1.812,-0.906 v -1.812 z"
         transform="translate(-20.137,-6.368)" />
      <path
         id="Path_6919"
         data-name="Path 6919"
         class="cls-1"
         d="m 105.839,26.275 v 1.812 h -1.359 a 3.509,3.509 0 0 1 0.377,1.585 c 0,2.114 -1.51,3.623 -4.3,3.623 -0.453,0 -0.83,-0.075 -1.208,-0.075 -0.151,0.151 -0.377,0.3 -0.377,0.6 0,0.528 0.6,0.6 1.963,0.679 2.038,0.075 4.68,0.151 4.68,3.095 0,2.114 -2.189,3.623 -5.435,3.623 -2.717,0 -4.378,-0.83 -4.378,-2.642 a 2.7,2.7 0 0 1 1.661,-2.416 1.717,1.717 0 0 1 -0.906,-1.51 2.188,2.188 0 0 1 1.132,-1.887 3.264,3.264 0 0 1 -1.812,-2.944 c 0,-2.114 1.661,-3.623 4.378,-3.623 a 6.606,6.606 0 0 1 1.812,0.226 h 3.774 z m -7.322,11.7 c 0,0.83 0.528,1.359 1.963,1.359 1.661,0 2.566,-0.6 2.566,-1.434 0,-1.057 -0.906,-1.057 -2.415,-1.132 -0.453,-0.075 -0.906,-0.075 -1.359,-0.151 a 1.585,1.585 0 0 0 -0.755,1.359 z m 3.774,-8.3 a 1.812,1.812 0 0 0 -3.623,0 1.812,1.812 0 0 0 3.623,0 z"
         transform="translate(-23.447,-6.441)" />
      <path
         id="Path_6920"
         data-name="Path 6920"
         class="cls-1"
         d="m 116.763,36.166 a 4.456,4.456 0 0 1 -0.151,-1.057 3.62,3.62 0 0 1 -2.793,1.283 A 2.8,2.8 0 0 1 110.8,33.6 c 0,-2.566 2.642,-3.548 5.284,-3.548 h 0.377 v -0.6 c 0,-0.83 -0.377,-1.359 -1.585,-1.359 a 4.143,4.143 0 0 0 -2.491,0.906 l -1.208,-1.661 a 5.9,5.9 0 0 1 4,-1.434 c 2.717,0 4,1.057 4,3.7 v 3.548 a 12.448,12.448 0 0 0 0.3,2.944 h -2.717 z m -0.3,-4.378 h -0.377 c -1.585,0 -2.717,0.453 -2.717,1.661 a 1.07,1.07 0 0 0 1.208,1.057 2.283,2.283 0 0 0 1.812,-0.906 v -1.812 z"
         transform="translate(-27.124,-6.368)" />
      <path
         id="Path_6921"
         data-name="Path 6921"
         class="cls-1"
         d="M 124.9,35.087 V 33.2 l 6.19,-9.36 h -5.963 V 21.5 h 9.436 v 1.812 l -6.263,9.435 h 6.492 v 2.34 z"
         transform="translate(-30.581,-5.289)" />
      <path
         id="Path_6922"
         data-name="Path 6922"
         class="cls-1"
         d="m 142.661,23.546 a 1.623,1.623 0 1 1 1.661,-1.661 1.675,1.675 0 0 1 -1.661,1.661 z M 141.3,34.793 v -9.964 h 2.717 v 9.964 z"
         transform="translate(-34.528,-4.995)" />
      <path
         id="Path_6923"
         data-name="Path 6923"
         class="cls-1"
         d="M 153.535,34.379 A 5.028,5.028 0 0 0 156.1,33.7 l 0.906,1.736 a 6.6,6.6 0 0 1 -3.7,0.981 c -3.321,0 -5.208,-2.114 -5.208,-5.284 A 4.819,4.819 0 0 1 153.007,26 c 3.095,0 4.6,2.189 4.3,5.812 h -6.265 a 2.288,2.288 0 0 0 2.493,2.567 z M 154.667,30 c 0,-1.132 -0.453,-2.038 -1.736,-2.038 -1.132,0 -1.812,0.755 -1.963,2.038 z"
         transform="translate(-36.268,-6.392)" />
      <path
         id="Path_6924"
         data-name="Path 6924"
         class="cls-1"
         d="M 165.917,34.72 H 163.2 V 20 h 2.717 v 8.756 l 3.246,-4 h 2.944 l -3.7,4.454 3.774,5.51 h -3.095 l -3.17,-4.907 z"
         transform="translate(-39.97,-4.921)" />
      <path
         id="Path_6925"
         data-name="Path 6925"
         class="cls-1"
         d="M 181.535,34.379 A 5.028,5.028 0 0 0 184.1,33.7 l 0.906,1.736 a 6.6,6.6 0 0 1 -3.7,0.981 c -3.321,0 -5.208,-2.114 -5.208,-5.284 A 4.819,4.819 0 0 1 181.007,26 c 3.095,0 4.6,2.189 4.3,5.812 h -6.265 c 0.077,1.588 0.832,2.567 2.493,2.567 z M 182.667,30 c 0,-1.132 -0.453,-2.038 -1.736,-2.038 -1.132,0 -1.812,0.755 -1.963,2.038 z"
         transform="translate(-43.133,-6.392)" />
      <path
         id="Path_6926"
         data-name="Path 6926"
         class="cls-1"
         d="m 197.414,36.19 v -6.416 c 0,-0.981 -0.377,-1.51 -1.359,-1.51 a 3.042,3.042 0 0 0 -2.038,1.208 v 6.643 H 191.3 v -9.889 h 2.642 v 1.284 a 4.08,4.08 0 0 1 3.17,-1.51 c 2.189,0 2.944,1.359 2.944,3.246 v 6.944 z"
         transform="translate(-46.859,-6.392)" />
      <path
         id="Path_6927"
         data-name="Path 6927"
         class="cls-1"
         d="M 212.639,34.72 V 28.3 c 0,-0.981 -0.377,-1.51 -1.283,-1.51 A 2.857,2.857 0 0 0 209.317,28 v 6.643 H 206.6 V 20 h 2.717 v 5.963 a 4.122,4.122 0 0 1 3.095,-1.434 c 2.189,0 2.944,1.359 2.944,3.246 v 6.945 z"
         transform="translate(-50.61,-4.921)" />
      <path
         id="Path_6928"
         data-name="Path 6928"
         class="cls-1"
         d="m 224.566,26.3 v 6.416 c 0,0.981 0.377,1.51 1.359,1.51 a 3.042,3.042 0 0 0 2.038,-1.208 v -6.643 h 2.717 v 7.1 a 12.208,12.208 0 0 0 0.3,2.868 h -2.642 c -0.076,-0.3 -0.151,-0.906 -0.226,-1.359 a 4.015,4.015 0 0 1 -3.17,1.585 c -2.189,0 -2.944,-1.434 -2.944,-3.246 v -6.948 h 2.566 z"
         transform="translate(-54.385,-6.466)" />
      <path
         id="Path_6929"
         data-name="Path 6929"
         class="cls-1"
         d="m 238.761,23.546 a 1.623,1.623 0 1 1 1.661,-1.661 1.675,1.675 0 0 1 -1.661,1.661 z m -1.434,11.247 v -9.964 h 2.717 v 9.964 z"
         transform="translate(-58.087,-4.995)" />
      <path
         id="Path_6930"
         data-name="Path 6930"
         class="cls-1"
         d="M 247.548,36.441 A 6.759,6.759 0 0 1 244,35.536 l 0.906,-1.887 a 4.285,4.285 0 0 0 2.416,0.83 c 1.057,0 1.661,-0.3 1.661,-0.906 0,-0.679 -1.132,-0.83 -2.491,-1.51 -1.359,-0.68 -2.189,-1.434 -2.189,-2.944 0,-1.887 1.434,-3.019 3.7,-3.019 a 5.739,5.739 0 0 1 3.17,0.83 l -0.981,1.887 a 4.143,4.143 0 0 0 -2.114,-0.6 c -0.981,0 -1.359,0.377 -1.359,0.906 0,0.679 0.906,0.83 2.038,1.283 1.585,0.679 2.717,1.359 2.717,3.019 -10e-4,1.96 -1.511,3.016 -3.926,3.016 z"
         transform="translate(-59.778,-6.417)" />
    </g>
    <g
       id="Group_560"
       data-name="Group 560"
       transform="translate(24.067,16.235)">
      <path
         id="Path_6931"
         data-name="Path 6931"
         class="cls-2"
         d="m 44.732,30.216 a 6.416,6.416 0 1 0 -6.416,6.416 6.317,6.317 0 0 0 6.416,-6.416 z"
         transform="translate(-31.9,-22.064)" />
      <path
         id="Path_6932"
         data-name="Path 6932"
         class="cls-2"
         d="m 265.758,32.867 2.114,-6.567 h 2.717 l -3.623,9.964 H 264.4 L 260.7,26.3 h 2.944 z"
         transform="translate(-87.991,-22.677)" />
      <path
         id="Path_6933"
         data-name="Path 6933"
         class="cls-2"
         d="m 281.063,36.166 a 4.454,4.454 0 0 1 -0.151,-1.057 3.62,3.62 0 0 1 -2.793,1.283 A 2.8,2.8 0 0 1 275.1,33.6 c 0,-2.566 2.642,-3.548 5.284,-3.548 h 0.377 v -0.6 c 0,-0.83 -0.377,-1.359 -1.585,-1.359 a 4.679,4.679 0 0 0 -2.566,0.906 l -1.21,-1.665 a 5.9,5.9 0 0 1 4,-1.434 c 2.717,0 4,1.057 4,3.7 v 3.548 a 12.45,12.45 0 0 0 0.3,2.944 h -2.642 z m -0.3,-4.378 h -0.377 c -1.585,0 -2.717,0.453 -2.717,1.661 a 1.07,1.07 0 0 0 1.208,1.057 2.283,2.283 0 0 0 1.812,-0.906 v -1.812 z"
         transform="translate(-91.521,-22.579)" />
      <path
         id="Path_6934"
         data-name="Path 6934"
         class="cls-2"
         d="m 295.914,36.19 v -6.416 c 0,-0.981 -0.377,-1.51 -1.359,-1.51 a 3.042,3.042 0 0 0 -2.038,1.208 v 6.643 H 289.8 v -9.889 h 2.642 v 1.284 a 4.081,4.081 0 0 1 3.17,-1.51 c 2.189,0 2.944,1.359 2.944,3.246 v 6.944 z"
         transform="translate(-95.125,-22.603)" />
      <path
         id="Path_6935"
         data-name="Path 6935"
         class="cls-2"
         d="m 315.1,35.087 h -4 V 21.5 h 4.076 c 5.359,0 7.775,2.717 7.775,6.567 0,3.925 -2.415,7.02 -7.851,7.02 z m 0.151,-11.247 h -1.208 v 8.983 h 1.357 c 3.095,0 4.6,-1.585 4.6,-4.6 -0.068,-3.1 -1.5,-4.383 -4.748,-4.383 z"
         transform="translate(-100.347,-21.5)" />
      <path
         id="Path_6936"
         data-name="Path 6936"
         class="cls-2"
         d="M 334.435,34.379 A 5.028,5.028 0 0 0 337,33.7 l 0.906,1.736 a 6.6,6.6 0 0 1 -3.7,0.981 c -3.321,0 -5.208,-2.114 -5.208,-5.284 A 4.819,4.819 0 0 1 333.907,26 c 3.095,0 4.6,2.189 4.3,5.812 h -6.265 c 0.077,1.588 0.832,2.567 2.493,2.567 z M 335.567,30 c 0,-1.132 -0.453,-2.038 -1.736,-2.038 -1.132,0 -1.812,0.755 -1.963,2.038 z"
         transform="translate(-104.735,-22.603)" />
      <path
         id="Path_6937"
         data-name="Path 6937"
         class="cls-2"
         d="m 350.214,36.19 v -6.416 c 0,-0.981 -0.377,-1.51 -1.359,-1.51 a 3.042,3.042 0 0 0 -2.038,1.208 v 6.643 H 344.1 v -9.889 h 2.642 v 1.284 a 4.08,4.08 0 0 1 3.17,-1.51 c 2.189,0 2.944,1.359 2.944,3.246 v 6.944 z"
         transform="translate(-108.437,-22.603)" />
      <path
         id="Path_6938"
         data-name="Path 6938"
         class="cls-2"
         d="M 374.507,35.087 V 29.2 h -6.039 v 5.888 H 365.6 V 21.5 h 2.868 v 5.359 h 6.039 V 21.5 h 2.868 v 13.587 z"
         transform="translate(-113.707,-21.5)" />
      <path
         id="Path_6939"
         data-name="Path 6939"
         class="cls-2"
         d="m 390.463,36.166 a 4.458,4.458 0 0 1 -0.151,-1.057 3.62,3.62 0 0 1 -2.793,1.283 A 2.8,2.8 0 0 1 384.5,33.6 c 0,-2.566 2.642,-3.548 5.284,-3.548 h 0.377 v -0.6 c 0,-0.83 -0.377,-1.359 -1.585,-1.359 a 4.679,4.679 0 0 0 -2.566,0.906 l -1.21,-1.665 a 5.9,5.9 0 0 1 4,-1.434 c 2.717,0 4,1.057 4,3.7 v 3.548 a 12.453,12.453 0 0 0 0.3,2.944 h -2.642 z m -0.3,-4.378 h -0.377 c -1.585,0 -2.717,0.453 -2.717,1.661 a 1.07,1.07 0 0 0 1.208,1.057 2.284,2.284 0 0 0 1.812,-0.906 v -1.812 z"
         transform="translate(-118.341,-22.579)" />
      <path
         id="Path_6940"
         data-name="Path 6940"
         class="cls-2"
         d="m 404.363,36.166 a 4.454,4.454 0 0 1 -0.151,-1.057 3.62,3.62 0 0 1 -2.793,1.283 A 2.8,2.8 0 0 1 398.4,33.6 c 0,-2.566 2.642,-3.548 5.284,-3.548 h 0.377 v -0.6 c 0,-0.83 -0.377,-1.359 -1.585,-1.359 a 4.143,4.143 0 0 0 -2.491,0.906 l -1.208,-1.661 a 5.9,5.9 0 0 1 4,-1.434 c 2.717,0 4,1.057 4,3.7 v 3.548 a 12.455,12.455 0 0 0 0.3,2.944 h -2.717 z m -0.3,-4.378 h -0.377 c -1.585,0 -2.717,0.453 -2.717,1.661 a 1.07,1.07 0 0 0 1.208,1.057 2.283,2.283 0 0 0 1.812,-0.906 v -1.812 z"
         transform="translate(-121.748,-22.579)" />
      <path
         id="Path_6941"
         data-name="Path 6941"
         class="cls-2"
         d="m 421.94,26.251 v 1.736 h -1.359 a 3.767,3.767 0 0 1 0.377,1.585 c 0,2.114 -1.51,3.623 -4.3,3.623 -0.453,0 -0.83,-0.075 -1.208,-0.075 -0.151,0.151 -0.377,0.3 -0.377,0.6 0,0.528 0.6,0.6 1.963,0.679 2.038,0.075 4.68,0.151 4.68,3.095 0,2.114 -2.189,3.623 -5.435,3.623 -2.718,0 -4.378,-0.83 -4.378,-2.642 a 2.7,2.7 0 0 1 1.661,-2.416 1.717,1.717 0 0 1 -0.906,-1.51 2.188,2.188 0 0 1 1.132,-1.887 3.2,3.2 0 0 1 -1.736,-2.944 c 0,-2.114 1.661,-3.623 4.378,-3.623 a 5.7,5.7 0 0 1 1.736,0.226 h 3.774 z m -7.322,11.7 c 0,0.83 0.528,1.359 1.963,1.359 1.661,0 2.566,-0.6 2.566,-1.434 0,-1.057 -0.906,-1.057 -2.415,-1.132 -0.453,-0.075 -0.906,-0.075 -1.359,-0.151 a 1.585,1.585 0 0 0 -0.756,1.358 z m 3.774,-8.3 a 1.812,1.812 0 1 0 -3.623,0 1.812,1.812 0 1 0 3.623,0 z"
         transform="translate(-125.058,-22.628)" />
    </g>
  </g>
</svg>
