<?xml version="1.0" encoding="UTF-8" standalone="no"?>
<svg width="848" height="848" viewBox="0 0 848 848" version="1.1" id="svg14" sodipodi:docname="Dpg-media-Logo.svg"
   inkscape:version="1.1.2 (b8e25be833, 2022-02-05)" xmlns:inkscape="http://www.inkscape.org/namespaces/inkscape"
   xmlns:sodipodi="http://sodipodi.sourceforge.net/DTD/sodipodi-0.dtd" xmlns="http://www.w3.org/2000/svg"
   xmlns:svg="http://www.w3.org/2000/svg">
   <defs id="defs18" />
   <sodipodi:namedview id="namedview16" pagecolor="#ffffff" bordercolor="#666666" borderopacity="1.0"
      inkscape:pageshadow="2" inkscape:pageopacity="0.0" inkscape:pagecheckerboard="0" showgrid="false" height="848px"
      inkscape:zoom="0.62382076" inkscape:cx="117.82231" inkscape:cy="262.89603" inkscape:window-width="2560"
      inkscape:window-height="1377" inkscape:window-x="-8" inkscape:window-y="-8" inkscape:window-maximized="1"
      inkscape:current-layer="g12" />
   <g fill="none" id="g12">
      <path fill="#000000"
         d="m 58.131276,438.91564 c 0,-75.69247 56.017534,-111.17384 104.709374,-111.17384 28.01256,0 49.98705,10.25061 64.20061,25.23077 V 233.66854 h 59.04572 v 312.144 h -59.04572 v -23.94566 c -14.21352,16.66892 -37.04799,28.215 -65.06071,28.215 -45.67661,0 -103.849274,-35.91585 -103.849274,-111.16624 m 170.642974,-0.4344 c 0,-32.07309 -22.84233,-57.29618 -55.15758,-57.29618 -32.32315,0 -57.75052,24.37747 -57.75052,57.29618 0,32.49988 25.42737,57.73073 57.75052,57.73073 32.31525,0 55.15758,-25.65749 55.15758,-57.73073 m 146.53358,86.36992 V 644.14747 H 316.27767 V 332.01898 h 59.03016 v 24.36194 c 13.79126,-16.66885 35.33824,-28.63904 64.63841,-28.63904 48.69959,0 104.27932,35.48137 104.27932,111.17383 0,75.25037 -57.30498,111.16625 -103.41944,111.16625 -28.86491,0 -51.70709,-9.3921 -65.49835,-25.23077 m 111.18286,-86.36988 c 0,-32.91869 -24.56741,-57.29619 -57.75051,-57.29619 -32.3154,0 -55.15759,25.2231 -55.15759,57.29619 0,32.07308 22.84219,57.73073 55.15759,57.73073 33.18309,0 57.75051,-25.23092 57.75051,-57.73073 m 75.42233,0.4344 c 0,-75.69247 56.0252,-111.17384 104.70938,-111.17384 28.01002,0 49.99463,11.54614 64.20835,27.36157 v -23.08446 h 59.03803 V 542.3862 c 0,64.14633 -47.83207,106.03833 -104.28723,106.03833 -60.74758,0 -100.39641,-35.04961 -112.89767,-81.66602 h 63.77839 c 8.19084,17.11613 21.11693,26.94267 49.11922,26.94267 25.85726,0 45.24924,-21.80703 45.24924,-49.60055 v -22.23375 c -14.21371,16.66892 -37.05588,28.215 -65.06844,28.215 -45.67661,0 -103.84927,-35.91585 -103.84927,-111.16624 m 170.64297,-0.4344 c 0,-32.07309 -22.83459,-57.29618 -55.15758,-57.29618 -32.31526,0 -57.74279,24.37747 -57.74279,57.29618 0,32.49988 25.42752,57.73073 57.74279,57.73073 32.32299,0 55.15758,-25.65749 55.15758,-57.73073 M 401.67719,229.94384 h 14.09686 v 7.9245 c 4.26649,-5.81673 11.05333,-9.24807 19.56796,-9.24807 10.63877,0 18.09395,4.49817 21.95109,11.888 4.65749,-7.38983 12.50396,-11.888 22.48992,-11.888 18.22613,0 27.53604,10.6927 27.53604,27.72669 v 39.60691 H 492.8154 v -38.6869 c 0,-10.02957 -5.31552,-16.37063 -15.43112,-16.37063 -9.05346,0 -15.83257,6.07374 -15.83257,17.82557 v 37.23198 h -14.36628 v -39.33971 c 0,-9.6441 -5.46066,-15.71784 -15.03476,-15.71784 -9.44983,0 -16.23667,6.20992 -16.23667,18.35756 v 36.69999 h -14.23681 z m 119.53592,33.2734 c 0,18.61736 13.30698,34.06017 34.33077,34.06017 17.1665,0 28.20434,-8.85245 33.39021,-23.50348 h -15.29626 c -2.5308,6.86537 -8.78153,11.22469 -17.96192,11.22469 -11.70601,0 -19.29335,-7.39752 -20.89417,-17.55823 h 55.21704 v -4.88629 c 0,-19.67365 -14.63317,-33.93672 -34.32287,-33.93672 -19.56005,0 -34.4628,15.19104 -34.4628,34.59986 z m 14.50383,-7.65716 c 2.75173,-8.67867 10.92059,-14.53404 20.08851,-14.39923 10.11814,0 17.16666,5.02262 19.69746,14.39923 z m 67.74344,7.39061 c 0,20.99225 16.23146,34.32803 33.12871,34.32803 8.61989,0.0585 16.79808,-3.77954 22.22051,-10.42872 v 9.10424 h 14.10478 V 199.57547 H 658.8096 v 38.95147 c -4.92438,-6.20239 -13.16959,-9.90877 -22.08311,-9.90877 -17.56557,0 -33.26611,13.20661 -33.26611,34.33252 z m 56.14717,-0.12869 c 0,11.88031 -8.91369,21.51671 -21.0238,21.51671 -11.84339,0 -21.01859,-9.37676 -21.01859,-21.51671 0,-12.02417 9.1752,-21.39324 21.01859,-21.39324 12.11011,0 21.0238,9.77257 21.0238,21.39324 z m 39.5157,-62.05177 c -3.87517,0 -7.36863,2.31671 -8.85087,5.86953 -1.48225,3.55282 -0.66126,7.64179 2.08001,10.35967 2.74127,2.71788 6.86279,3.52922 10.44208,2.05556 3.57929,-1.47366 5.91124,-4.94198 5.9081,-8.78719 0.14506,-2.56169 -0.81779,-5.06317 -2.64691,-6.87668 -1.82912,-1.81352 -4.35088,-2.76689 -6.93241,-2.62089 z m -7.18085,95.18115 h 14.37403 V 229.94149 H 691.9424 Z m 28.34016,-33.00074 c 0,20.99225 16.23153,34.32735 33.12861,34.32735 8.62003,0.0598 16.79846,-3.77838 22.2205,-10.42805 v 9.10423 h 14.23705 v -66.01243 h -14.23711 v 8.58513 c -4.92437,-6.20239 -13.16958,-9.90876 -22.08295,-9.90876 -17.56556,0 -33.2661,13.20661 -33.2661,34.3325 z m 56.14717,-0.12869 c 0,11.88031 -8.91368,21.5167 -21.02397,21.5167 -11.84338,0 -21.01858,-9.37676 -21.01858,-21.5167 0,-12.02418 9.1752,-21.39325 21.01858,-21.39325 12.11029,0 21.02397,9.77257 21.02397,21.39325 z"
         id="path2" style="stroke-width:1.35139" />
   </g>
</svg>