<?xml version="1.0" encoding="UTF-8" standalone="no"?>
<svg
   viewBox="0 0 649.99999 360"
   id="svg39"
   width="650"
   height="360"
   version="1.1"
   sodipodi:docname="2019-10-01-splash.svg"
   inkscape:version="1.1.2 (b8e25be833, 2022-02-05)"
   xmlns:inkscape="http://www.inkscape.org/namespaces/inkscape"
   xmlns:sodipodi="http://sodipodi.sourceforge.net/DTD/sodipodi-0.dtd"
   xmlns="http://www.w3.org/2000/svg"
   xmlns:svg="http://www.w3.org/2000/svg"
   xmlns:rdf="http://www.w3.org/1999/02/22-rdf-syntax-ns#"
   xmlns:cc="http://creativecommons.org/ns#"
   xmlns:dc="http://purl.org/dc/elements/1.1/">
  <sodipodi:namedview
     id="namedview419"
     pagecolor="#ffffff"
     bordercolor="#666666"
     borderopacity="1.0"
     inkscape:pageshadow="2"
     inkscape:pageopacity="0.0"
     inkscape:pagecheckerboard="0"
     showgrid="false"
     width="650px"
     inkscape:zoom="1.9524978"
     inkscape:cx="271.70324"
     inkscape:cy="113.18834"
     inkscape:window-width="2560"
     inkscape:window-height="1377"
     inkscape:window-x="-8"
     inkscape:window-y="-8"
     inkscape:window-maximized="1"
     inkscape:current-layer="svg39" />
  <defs
     id="defs4">
    <style
       id="style2">.cls-1{fill:#8c3223}.cls-2{fill:#e15343}.cls-3{fill:#5e1f19}.cls-4{fill:#f2b0a9}.cls-5{fill:#201c1d}</style>
  </defs>
  <title
     id="title6">Asset 6</title>
  <g
     id="Layer_2"
     data-name="Layer 2"
     transform="translate(54.065,66.86)">
    <g
       id="Layer_1-2"
       data-name="Layer 1">
      <g
         id="S3">
        <path
           d="m 255.18,142.45 c 0,-6 -2.16,-10.16 -8.88,-10.16 -5.92,0 -9.44,3.2 -9.44,9.28 0,16.08 27,6.48 27,27.36 0,13.2 -9.68,17 -17.76,17 -13.36,0 -17.28,-6.88 -17.28,-19 h 7 c 0,6.4 0.4,13.28 10.72,13.28 a 9.62,9.62 0 0 0 9.92,-10.08 c 0,-16.16 -27,-6.8 -27,-27.76 0,-5.28 2.24,-15.76 16.72,-15.76 10.88,0 15.84,5.44 16,15.92 z"
           id="path8" />
        <path
           d="m 282.7,152.85 h 3.52 c 6,0 8.64,-4.32 8.64,-10 0,-5.2 -1.92,-9.44 -7.36,-9.44 -7.44,0 -8.16,6.88 -8.16,11 h -7 c 0,-9.68 4.56,-16.32 15,-16.32 11.84,0 14.56,8.4 14.56,14.72 0,5.68 -2.88,10.72 -8.8,12.16 v 0.16 c 6.4,1.28 10.48,5.36 10.48,13.2 0,10.32 -5.2,17.52 -16.08,17.52 -15.2,0 -16.08,-13.28 -16.08,-15.76 v -0.72 h 7 c 0,5.2 2.56,11.2 9,11.2 4.16,0 9,-2.08 9,-11.68 0,-6.64 -3.2,-10.8 -10.24,-10.8 h -3.6 z"
           id="path10" />
      </g>
      <g
         id="S3-2"
         data-name="S3">
        <path
           class="cls-1"
           d="M 59.26,17.11 C 70.7,11.4 82.1,5.62 93.58,0 c 0.1,19 0,38.08 0,57.12 -11.18,2.48 -22.22,5.6 -33.4,8.07 l 1.54,1 -2.34,-0.27 c -0.26,-5.31 0,-10.63 -0.14,-15.94 0,-10.98 0.02,-21.93 0.02,-32.87 z"
           id="path13"
           fill="#8c3223" />
        <path
           class="cls-2"
           d="m 93.58,0 q 17.17,8.6 34.36,17.17 v 32.77 c -0.06,5.08 0,10.17 0,15.25 l -0.74,0.2 C 116.03,62.58 104.87,59.69 93.64,57.12 93.57,38.08 93.68,19 93.58,0 Z"
           id="path15"
           fill="#e15343" />
        <path
           class="cls-1"
           d="m 0,46.71 c 5.08,-2.48 10.09,-5.12 15.21,-7.54 q -0.06,73.77 0,147.54 c -5.12,-2.35 -10.09,-5 -15.17,-7.48 Q 0,113 0,46.71 Z"
           id="path17"
           fill="#8c3223" />
        <path
           class="cls-2"
           d="m 15.21,39.17 c 14.65,3.75 29.4,7.08 44.06,10.83 0.1,5.31 -0.12,10.63 0.14,15.94 l 2.34,0.27 c 10.62,1.72 21.13,4 31.76,5.61 0.12,4.29 0.1,8.57 0,12.86 C 82.13,86 70.7,87.39 59.29,89 c 0,16.09 0.06,32.19 0,48.28 11.38,1.77 22.84,3 34.26,4.44 0.23,4.23 0.08,8.47 0.07,12.71 -11.46,1.93 -22.88,4.08 -34.29,6.26 v 15.29 C 44.59,179.65 29.86,183 15.18,186.7 q 0.08,-73.76 0.03,-147.53 z"
           id="path19"
           fill="#e15343" />
        <path
           class="cls-1"
           d="m 127.92,49.94 c 14.7,-3.65 29.43,-7.17 44.15,-10.72 q -0.08,71.65 0,143.3 c 0,1.36 -0.14,2.72 -0.26,4.08 -14.64,-3.47 -29.25,-7 -43.88,-10.59 -0.06,-5.1 0,-10.21 0,-15.32 -11.43,-2.18 -22.88,-4.33 -34.36,-6.28 0,-4.24 0.16,-8.48 -0.07,-12.71 -11.42,-1.41 -22.88,-2.67 -34.26,-4.44 0.11,-16.09 0,-32.19 0,-48.28 11.46,-1.59 22.89,-2.98 34.32,-4.35 0.05,-4.29 0.07,-8.57 0,-12.86 9.61,-1.37 19.11,-3.52 28.72,-5 a 24,24 0 0 0 4.94,-1.36 l 0.74,-0.2 C 127.89,60.1 127.86,55 127.92,49.94 Z"
           id="path21"
           fill="#8c3223" />
        <path
           class="cls-2"
           d="m 172.08,39.22 c 5,2.57 10.12,5 15.15,7.61 q -0.07,66.19 0,132.38 c -5.14,2.59 -10.34,5.08 -15.44,7.77 v -0.37 c 0.12,-1.36 0.22,-2.72 0.26,-4.08 q 0.01,-71.66 0.03,-143.31 z"
           id="path23"
           fill="#e15343" />
        <path
           class="cls-3"
           d="m 60.21,65.19 c 11.19,-2.47 22.22,-5.59 33.4,-8.07 11.23,2.57 22.39,5.46 33.56,8.27 a 24,24 0 0 1 -4.94,1.36 c -9.6,1.5 -19.1,3.65 -28.72,5 -10.64,-1.6 -21.15,-3.89 -31.76,-5.61 -0.51,-0.29 -1.03,-0.61 -1.54,-0.95 z"
           id="path25"
           fill="#5e1f19" />
        <path
           class="cls-2"
           d="m 93.69,84.65 c 11.4,1.42 22.82,2.78 34.21,4.35 v 48.27 c -11.42,1.66 -22.88,3.1 -34.34,4.38 0.16,-19.01 -0.09,-38.01 0.13,-57 z"
           id="path27"
           fill="#e15343" />
        <path
           class="cls-4"
           d="m 59.29,160.67 c 11.4,-2.18 22.83,-4.33 34.29,-6.26 11.47,1.95 22.92,4.1 34.36,6.28 -11.45,2.82 -22.87,5.83 -34.37,8.47 -11.46,-2.73 -22.87,-5.61 -34.28,-8.49 z"
           id="path29"
           fill="#f2b0a9" />
        <path
           class="cls-1"
           d="m 59.26,176 c 0.05,-5.1 0,-10.19 0,-15.29 11.41,2.87 22.83,5.76 34.27,8.49 0.12,19 0.05,38.06 0,57.08 -11.49,-5.61 -22.89,-11.4 -34.34,-17.11 Q 59.26,192.56 59.26,176 Z"
           id="path31"
           fill="#8c3223" />
        <path
           class="cls-2"
           d="m 93.56,169.17 c 11.5,-2.64 22.92,-5.65 34.37,-8.47 -0.05,5.1 -0.07,10.21 0,15.32 0.05,11 0,22 0,33.07 q -17.18,8.57 -34.34,17.17 c 0.02,-19.04 0.09,-38.07 -0.03,-57.09 z"
           id="path33"
           fill="#e15343" />
      </g>
      <path
         id="Amazon"
         class="cls-5"
         d="m 251.39,52.73 c -9.24,0 -19.45,3.58 -21.68,15.28 A 1.65,1.65 0 0 0 231,70 h 0.16 l 9.48,1.14 a 2.11,2.11 0 0 0 1.52,-2 7.42,7.42 0 0 1 7.84,-5.93 6.48,6.48 0 0 1 5.42,2.52 13,13 0 0 1 1.27,7.21 v 1.38 A 66.06,66.06 0 0 0 238.35,77.73 17,17 0 0 0 228,94 c 0,10.38 6.48,15.55 14.52,15.55 a 19,19 0 0 0 16.07,-7.21 23.82,23.82 0 0 0 5.42,6.48 2,2 0 0 0 2.28,-0.27 c 2,-1.79 5.42,-5 7.45,-6.69 a 1.92,1.92 0 0 0 0,-2.71 A 13.71,13.71 0 0 1 270,89.93 V 74.87 c 0,-6.48 0.54,-12.65 -4.17,-17.21 a 21.68,21.68 0 0 0 -14.44,-4.93 z m 127.35,0 c -9.24,0 -19.45,3.58 -21.68,15.28 a 1.65,1.65 0 0 0 1.25,2 h 0.16 l 9.53,1.12 a 2.11,2.11 0 0 0 1.65,-2 7.42,7.42 0 0 1 7.83,-5.93 6.48,6.48 0 0 1 5.42,2.52 13,13 0 0 1 1.1,7.22 v 1.38 A 65.22,65.22 0 0 0 365.79,77.73 17,17 0 0 0 355.44,94 c 0,10.38 6.48,15.55 14.52,15.55 a 19,19 0 0 0 16.04,-7.21 23.71,23.71 0 0 0 5.42,6.48 2,2 0 0 0 2.28,-0.27 c 2,-1.79 5.42,-5 7.45,-6.69 a 2,2 0 0 0 0,-2.71 13.71,13.71 0 0 1 -3.66,-9.21 V 74.87 c 0,-6.48 0.43,-12.65 -4.28,-17.21 a 21.41,21.41 0 0 0 -14.47,-4.93 z m -71.64,0.51 a 13,13 0 0 0 -12.79,9.43 V 56 a 1.92,1.92 0 0 0 -1.79,-1.79 h -9 a 1.92,1.92 0 0 0 -1.87,1.87 v 51.18 a 2,2 0 0 0 1.79,1.79 h 9.73 a 1.92,1.92 0 0 0 1.87,-1.87 V 80.09 c 0,-5.93 -0.3,-14 6.69,-14 6.99,0 5.93,8.35 5.93,14 v 27.1 a 2,2 0 0 0 1.79,1.87 h 9.73 a 1.92,1.92 0 0 0 1.87,-1.87 v -27.1 a 31.11,31.11 0 0 1 0.87,-9.73 6.48,6.48 0 0 1 5.66,-4.36 5.07,5.07 0 0 1 5.66,4.36 67.74,67.74 0 0 1 0.27,9.73 v 27.1 a 2,2 0 0 0 1.79,1.87 h 9.7 a 1.92,1.92 0 0 0 1.87,-1.87 V 74.7 c 0,-5.42 0.54,-11.73 -2.52,-16.07 a 14.17,14.17 0 0 0 -24.39,4 c -3,-6.39 -6.8,-9.35 -12.87,-9.35 z m 165.47,0 c -14,0 -21.87,12.36 -21.87,28.29 0,15.93 7.72,28.56 21.87,28.56 13.55,0 22.22,-12.44 22.22,-28.07 0,-16.09 -7.88,-28.78 -22.41,-28.78 z m 55.49,0 c -6.72,0 -10.54,3.25 -13.28,10.35 v -7.8 A 1.87,1.87 0 0 0 513,54.41 h -9 a 1.84,1.84 0 0 0 -1.87,1.65 v 51.13 a 2,2 0 0 0 1.79,1.87 h 9.73 a 1.92,1.92 0 0 0 1.87,-1.87 V 79.66 a 23.65,23.65 0 0 1 1.65,-9.73 6.23,6.23 0 0 1 5.23,-4.12 c 6.72,0 6.07,8.13 6.07,13.76 v 27.8 a 1.92,1.92 0 0 0 1.79,1.65 H 540 a 1.92,1.92 0 0 0 1.87,-1.65 V 75.22 c 0,-5 0,-11.84 -2.52,-15.93 A 12.76,12.76 0 0 0 528,53.22 Z m -116.81,0.87 a 1.79,1.79 0 0 0 -1.79,1.79 v 7.34 a 1.79,1.79 0 0 0 1.68,1.87 h 16.77 l -19,28.15 a 9.32,9.32 0 0 0 -1.35,5 v 7.45 a 1.68,1.68 0 0 0 2.28,1.65 35.9,35.9 0 0 1 33.73,0 1.76,1.76 0 0 0 2.43,-1.66 V 98 A 3.25,3.25 0 0 0 444.21,95.29 34.68,34.68 0 0 0 426,91.18 L 442.56,66.79 A 10.24,10.24 0 0 0 445,62.24 V 56 a 1.79,1.79 0 0 0 -1.68,-1.87 h -32 z m 61.29,9.73 a 6.2,6.2 0 0 1 6.46,4.93 48.37,48.37 0 0 1 1.38,13.55 c 0,6.48 -0.33,17.42 -7.83,17.42 -7.5,0 -7.55,-13.55 -7.55,-19.74 0,-6.19 0.33,-16.26 7.37,-16.26 z m -216,18.56 v 2.14 a 20.1,20.1 0 0 1 -1.79,10.57 7.86,7.86 0 0 1 -6.69,4.55 c -3.74,0 -5.93,-3 -5.93,-7.34 -0.11,-8.4 7.45,-9.89 14.44,-9.89 z m 127.35,0 v 2.14 a 20.08,20.08 0 0 1 -1.79,10.62 7.83,7.83 0 0 1 -6.69,4.55 c -3.74,0 -5.93,-3 -5.93,-7.34 0,-8.48 7.37,-10 14.36,-10 z"
         fill="#201c1d" />
    </g>
  </g>
  <metadata
     id="metadata421">
    <rdf:RDF>
      <cc:Work
         rdf:about="">
        <dc:title>Asset 6</dc:title>
      </cc:Work>
    </rdf:RDF>
  </metadata>
</svg>
