<svg width="800" height="512" xmlns="http://www.w3.org/2000/svg" version="1.1" fill="none">

 <title id="title53">TypeScript logo</title>
 <metadata id="metadata145">TypeScript logo</metadata>
 <g>
  <title>Layer 1</title>
  <rect stroke="null"  y="-1" x="0" id="rect55" fill="#3178c6" height="512" width="800"/>
  <path id="path57" fill-rule="evenodd" fill="#ffffff" clip-rule="evenodd" d="m605,406l0,50c8.09998,4.20001 18,7.29999 29,9.39999c11,2.10001 23,3.10001 35,3.10001c12,0 23,-1.10001 34,-3.39999c11,-2.30002 20,-6.10001 28,-11c8.09998,-5.30002 15,-12 19,-21c4,-9 7.09998,-19 7.09998,-32c0,-9.10001 -1.39996,-17 -4.09998,-24c-2.70001,-7 -6.59998,-13 -12,-18c-5.10004,-5.30002 -11,-10 -18,-14c-7,-4 -15,-8.20001 -24,-12c-6.59998,-2.70001 -12,-5.30002 -18,-7.89999c-5.20001,-2.60001 -9.70001,-5.20001 -13,-7.80002c-3.70001,-2.69998 -6.5,-5.5 -8.5,-8.39999c-2,-3 -3,-6.29999 -3,-10c0,-3.39999 0.89001,-6.5 2.70001,-9.29999c1.81,-2.80002 4.29999,-5.10001 7.5,-7.10001c3.19995,-2 7.19995,-3.5 12,-4.60001c4.70001,-1.10001 9.90002,-1.60001 16,-1.60001c4.19995,0 8.59998,0.31 13,0.94c4.59998,0.63 9.29999,1.60001 14,2.89999c4.70001,1.30002 9.29999,2.90002 14,4.90002c4.39996,2 8.5,4.29999 12,6.89999l0,-47.00002c-7.60004,-2.89999 -16,-5.09999 -25,-6.5c-9,-1.39999 -19,-2.09999 -31,-2.09999c-12,0 -23,1.3 -34,3.8c-11,2.5 -20,6.5 -28,12c-8.09998,5.40001 -14,11.99998 -19,20.99998c-4.70001,8.40002 -7,18 -7,30c0,15 4.29999,28 13,38c8.59998,11 22,19 39,27c6.90002,2.80002 13,5.60001 19,8.30002c6,2.69998 11,5.5 15,8.39999c4.29999,2.89999 7.70001,6.10001 10,9.5c2.5,3.39999 3.79999,7.39999 3.79999,12c0,3.20001 -0.78003,6.20001 -2.29999,9c-1.52002,2.79999 -3.90002,5.20001 -7.10004,7.20001c-3.20001,2 -7.09998,3.59998 -12,4.79999c-4.69995,1.10001 -10,1.70001 -17,1.70001c-11,0 -22,-1.90002 -32,-5.70001c-11,-3.79999 -21,-9.5 -30,-17l1.90002,-0.44zm-84,-123l64,0l0,-41l-179,0l0,41l64,0l0,183l51,0l0,-183z"/>
 </g>
</svg>