<svg viewBox="0 0 40 40" xmlns="http://www.w3.org/2000/svg">
  <rect width="40" height="40" fill="#244e95"></rect>
  <path d="M 7.9 12.95 L 5.1 12.95 L 5.1 12.15 L 11.7 12.15 L 11.7 14.15 C 13.1 12.55 14.8 11.75 17 11.75 C 18.3 11.75 19.5 12.05 20.4 12.75 C 21 13.15 21.3 13.55 21.6 14.45 C 23 12.65 24.8 11.75 27.3 11.75 C 29 11.75 30.5 12.35 31.3 13.35 C 31.9 14.05 32.1 15.15 32.1 17.35 L 32.1 27.45 L 34.9 27.45 L 34.9 28.25 L 25.8 28.25 L 25.8 27.45 L 28.3 27.45 L 28.3 17.35 C 28.3 14.65 28.2 14.15 27.6 13.55 C 27.2 13.15 26.6 12.95 25.9 12.95 C 24.5 12.95 23.1 13.75 22.5 14.95 C 21.8 16.35 21.7 16.55 21.7 22.95 L 21.7 27.35 L 24.2 27.35 L 24.2 28.15 L 15.4 28.15 L 15.4 27.35 L 18.1 27.35 L 18.1 17.35 C 18.1 15.35 18 14.55 17.6 13.95 C 17.3 13.45 16.5 13.05 15.7 13.05 C 14.3 13.05 12.8 13.95 12.3 15.05 C 11.8 16.15 11.6 18.25 11.6 22.95 L 11.6 27.35 L 14.1 27.35 L 14.1 28.15 L 5.1 28.15 L 5.1 27.35 L 7.9 27.35 L 7.9 12.95 Z" fill="#fff"></path>
</svg>